<?xml version="1.0" encoding="UTF-8"?>
<!DOCTYPE svg PUBLIC "-//W3C//DTD SVG 1.1//EN" "http://www.w3.org/Graphics/SVG/1.1/DTD/svg11.dtd">
<!-- Creator: CorelDRAW 2021 (64-Bit) -->
<svg xmlns="http://www.w3.org/2000/svg" xml:space="preserve" width="0.312504in" height="0.312504in" version="1.1" style="shape-rendering:geometricPrecision; text-rendering:geometricPrecision; image-rendering:optimizeQuality; fill-rule:evenodd; clip-rule:evenodd"
viewBox="0 0 312.5 312.5"
 xmlns:xlink="http://www.w3.org/1999/xlink"
 xmlns:xodm="http://www.corel.com/coreldraw/odm/2003">
 <defs>
  <style type="text/css">
   <![CDATA[
    .fil1 {fill:#5A8D35;fill-rule:nonzero}
    .fil0 {fill:white;fill-rule:nonzero}
   ]]>
  </style>
 </defs>
 <g id="Layer_x0020_1">
  <metadata id="CorelCorpID_0Corel-Layer"/>
  <path class="fil0" d="M156.25 312.5c86.3,0 156.25,-69.96 156.25,-156.25 0,-86.3 -69.96,-156.25 -156.25,-156.25 -86.3,0 -156.25,69.96 -156.25,156.25 0,86.3 69.96,156.25 156.25,156.25z"/>
  <path class="fil1" d="M5.05 156.25c0,67.18 42.4,124.44 101.9,146.52l0 -293.05c-59.5,22.08 -101.9,79.35 -101.9,146.53z"/>
  <path class="fil1" d="M312.5 156.25c0,-67.18 -42.4,-124.45 -101.9,-146.53l0 293.05c59.5,-22.08 101.9,-79.35 101.9,-146.52z"/>
 </g>
</svg>
